<svg width="136" height="136" viewBox="0 0 136 136" fill="none" xmlns="http://www.w3.org/2000/svg">
<rect width="136" height="136" rx="68" fill="#00426A" />
<path d="M91.25 40H100V42C100 58.625 88.625 72 74.625 72H70V95C70 95.625 69.5 96 69 96H67C66.375 96 66 95.625 66 95V80H61.25C47.25 80 36 66.625 36 50V48H44.625C54 48 62.25 54.25 66.625 63.25C69.25 50 79.25 40 91.25 40ZM61.25 76H65.875C65 62.625 55.875 52 44.625 52H40C40.875 65.5 50.125 76 61.25 76ZM74.625 68C85.875 68 95 57.5 95.875 44H91.25C80.125 44 70.875 54.625 70 68H74.625Z" fill="white" />
</svg>
